HIERARCHY
ROOT Hips
{
  OFFSET 5.84602e-005 68.8428 3.50346
  CHANNELS 6 Xposition Yposition Zposition Zrotation Xrotation Yrotation
  JOINT Spine
  {
    OFFSET 0 8.597 -4.6522
    CHANNELS 3 Zrotation Xrotation Yrotation
    JOINT Spine1
    {
      OFFSET 0 7.8454 0.4098
      CHANNELS 3 Zrotation Xrotation Yrotation
      JOINT Spine2
      {
        OFFSET 0 9.7078 -2.1609
        CHANNELS 3 Zrotation Xrotation Yrotation
        JOINT Neck
        {
          OFFSET 0 21.8761 -0.4549
          CHANNELS 3 Zrotation Xrotation Yrotation
          JOINT Head
          {
            OFFSET 0 12.3537 3.3602
            CHANNELS 3 Zrotation Xrotation Yrotation
            End Site
            {
              OFFSET 0.0001 18.9506 0.5657
            }
          }
        }
        JOINT LeftShoulder
        {
          OFFSET 2.2086 21.1115 7.2329
          CHANNELS 3 Zrotation Xrotation Yrotation
          JOINT LeftArm
          {
            OFFSET 13.1193 3.0282 -4.8998
            CHANNELS 3 Zrotation Xrotation Yrotation
            JOINT LeftForeArm
            {
              OFFSET 27.4081 -0.0973053 -0.2375
              CHANNELS 3 Zrotation Xrotation Yrotation
              JOINT LeftHand
              {
                OFFSET 22.8641 0.0662994 -0.1369
                CHANNELS 3 Zrotation Xrotation Yrotation
                JOINT LeftHandIndex1
                {
                  OFFSET 8.8614 0.775009 2.4612
                  CHANNELS 3 Zrotation Xrotation Yrotation
                  JOINT LeftHandIndex2
                  {
                    OFFSET 3.3146 -0.808304 0.5841
                    CHANNELS 3 Zrotation Xrotation Yrotation
                    JOINT LeftHandIndex3
                    {
                      OFFSET 2.2628 -0.552002 0.3989
                      CHANNELS 3 Zrotation Xrotation Yrotation
                      End Site
                      {
                        OFFSET 1.6102 -0.4807 0.2612
                      }
                    }
                  }
                }
                JOINT LeftHandMiddle1
                {
                  OFFSET 8.9937 0.895004 0.2143
                  CHANNELS 3 Zrotation Xrotation Yrotation
                  JOINT LeftHandMiddle2
                  {
                    OFFSET 4.0984 0.0113983 -0.0242
                    CHANNELS 3 Zrotation Xrotation Yrotation
                    JOINT LeftHandMiddle3
                    {
                      OFFSET 2.2716 0.00689697 -0.0138001
                      CHANNELS 3 Zrotation Xrotation Yrotation
                      End Site
                      {
                        OFFSET 2.0404 -0.1441 0.0027
                      }
                    }
                  }
                }
                JOINT LeftHandRing1
                {
                  OFFSET 8.5234 0.597198 -2.0164
                  CHANNELS 3 Zrotation Xrotation Yrotation
                  JOINT LeftHandRing2
                  {
                    OFFSET 3.7188 -0.188293 -0.2328
                    CHANNELS 3 Zrotation Xrotation Yrotation
                    JOINT LeftHandRing3
                    {
                      OFFSET 2.1191 -0.106598 -0.1332
                      CHANNELS 3 Zrotation Xrotation Yrotation
                      End Site
                      {
                        OFFSET 1.8737 -0.2304 -0.0886
                      }
                    }
                  }
                }
                JOINT LeftHandPinky1
                {
                  OFFSET 7.9094 -0.601089 -3.4825
                  CHANNELS 3 Zrotation Xrotation Yrotation
                  JOINT LeftHandPinky2
                  {
                    OFFSET 2.2874 -0.477005 -0.6314
                    CHANNELS 3 Zrotation Xrotation Yrotation
                    JOINT LeftHandPinky3
                    {
                      OFFSET 1.6774 -0.349396 -0.4633
                      CHANNELS 3 Zrotation Xrotation Yrotation
                      End Site
                      {
                        OFFSET 1.4888 -0.4091 -0.3416
                      }
                    }
                  }
                }
                JOINT LeftHandThumb1
                {
                  OFFSET 1.833 -1.3875 1.3896
                  CHANNELS 3 Zrotation Xrotation Yrotation
                  JOINT LeftHandThumb2
                  {
                    OFFSET 3.4129 -1.121 2.5732
                    CHANNELS 3 Zrotation Xrotation Yrotation
                    JOINT LeftHandThumb3
                    {
                      OFFSET 2.2474 -0.804199 1.6192
                      CHANNELS 3 Zrotation Xrotation Yrotation
                      End Site
                      {
                        OFFSET 1.6527 -0.5689 1.1317
                      }
                    }
                  }
                }
              }
            }
          }
        }
        JOINT RightShoulder
        {
          OFFSET -2.2086 21.1115 7.2329
          CHANNELS 3 Zrotation Xrotation Yrotation
          JOINT RightArm
          {
            OFFSET -13.1216 3.0287 -4.9007
            CHANNELS 3 Zrotation Xrotation Yrotation
            JOINT RightForeArm
            {
              OFFSET -27.4081 -0.0973053 -0.2375
              CHANNELS 3 Zrotation Xrotation Yrotation
              JOINT RightHand
              {
                OFFSET -22.8641 0.0664063 -0.1369
                CHANNELS 3 Zrotation Xrotation Yrotation
                JOINT RightHandIndex1
                {
                  OFFSET -8.8614 0.774994 2.4612
                  CHANNELS 3 Zrotation Xrotation Yrotation
                  JOINT RightHandIndex2
                  {
                    OFFSET -3.3146 -0.808304 0.5841
                    CHANNELS 3 Zrotation Xrotation Yrotation
                    JOINT RightHandIndex3
                    {
                      OFFSET -2.2628 -0.552002 0.3989
                      CHANNELS 3 Zrotation Xrotation Yrotation
                      End Site
                      {
                        OFFSET -1.6102 -0.4807 0.2612
                      }
                    }
                  }
                }
                JOINT RightHandMiddle1
                {
                  OFFSET -8.9937 0.894989 0.2143
                  CHANNELS 3 Zrotation Xrotation Yrotation
                  JOINT RightHandMiddle2
                  {
                    OFFSET -4.0984 0.0113983 -0.0242
                    CHANNELS 3 Zrotation Xrotation Yrotation
                    JOINT RightHandMiddle3
                    {
                      OFFSET -2.2716 0.00691223 -0.0138001
                      CHANNELS 3 Zrotation Xrotation Yrotation
                      End Site
                      {
                        OFFSET -2.0404 -0.1441 0.0027
                      }
                    }
                  }
                }
                JOINT RightHandRing1
                {
                  OFFSET -8.5234 0.597198 -2.0164
                  CHANNELS 3 Zrotation Xrotation Yrotation
                  JOINT RightHandRing2
                  {
                    OFFSET -3.7188 -0.188309 -0.2328
                    CHANNELS 3 Zrotation Xrotation Yrotation
                    JOINT RightHandRing3
                    {
                      OFFSET -2.1191 -0.106598 -0.1332
                      CHANNELS 3 Zrotation Xrotation Yrotation
                      End Site
                      {
                        OFFSET -1.8737 -0.2304 -0.0886
                      }
                    }
                  }
                }
                JOINT RightHandPinky1
                {
                  OFFSET -7.9094 -0.601105 -3.4825
                  CHANNELS 3 Zrotation Xrotation Yrotation
                  JOINT RightHandPinky2
                  {
                    OFFSET -2.2874 -0.477005 -0.6314
                    CHANNELS 3 Zrotation Xrotation Yrotation
                    JOINT RightHandPinky3
                    {
                      OFFSET -1.6774 -0.349396 -0.4633
                      CHANNELS 3 Zrotation Xrotation Yrotation
                      End Site
                      {
                        OFFSET -1.4888 -0.4091 -0.3416
                      }
                    }
                  }
                }
                JOINT RightHandThumb1
                {
                  OFFSET -1.833 -1.38751 1.3896
                  CHANNELS 3 Zrotation Xrotation Yrotation
                  JOINT RightHandThumb2
                  {
                    OFFSET -3.41299 -1.12099 2.5732
                    CHANNELS 3 Zrotation Xrotation Yrotation
                    JOINT RightHandThumb3
                    {
                      OFFSET -2.24741 -0.804108 1.6192
                      CHANNELS 3 Zrotation Xrotation Yrotation
                      End Site
                      {
                        OFFSET -1.6527 -0.5689 1.1317
                      }
                    }
                  }
                }
              }
            }
          }
        }
      }
    }
  }
  JOINT RightUpLeg
  {
    OFFSET -9.1966 3.8861 -0.7581
    CHANNELS 3 Zrotation Xrotation Yrotation
    JOINT RightLeg
    {
      OFFSET -0.7359 -41.0265 0
      CHANNELS 3 Zrotation Xrotation Yrotation
      JOINT RightFoot
      {
        OFFSET 0 -40.2855 0
        CHANNELS 3 Zrotation Xrotation Yrotation
        JOINT RightToeBase
        {
          OFFSET 0 -5.6122 11.7359
          CHANNELS 3 Zrotation Xrotation Yrotation
          End Site
          {
            OFFSET 0 0 7.8731
          }
        }
      }
    }
  }
  JOINT LeftUpLeg
  {
    OFFSET 9.1965 3.8864 -0.7581
    CHANNELS 3 Zrotation Xrotation Yrotation
    JOINT LeftLeg
    {
      OFFSET 0.7359 -41.0268 0
      CHANNELS 3 Zrotation Xrotation Yrotation
      JOINT LeftFoot
      {
        OFFSET 0 -40.2855 0
        CHANNELS 3 Zrotation Xrotation Yrotation
        JOINT LeftToeBase
        {
          OFFSET 0 -5.6122 11.7359
          CHANNELS 3 Zrotation Xrotation Yrotation
          End Site
          {
            OFFSET 0 0 7.8731
          }
        }
      }
    }
  }
}
MOTION
Frames:	6
Frame Time:	0.0333333
5.84602e-005 68.8428 3.50346 0 0 -0 0 0 -0 0 0 -0 0 0 -0 0 0 -0 0 0 -0 0 0 -0 0 0 -0 0 0 -0 0 0 -0 0 0 -0 0 0 -0 0 0 -0 0 0 -0 -0.0146107 -8.87603e-005 -2.63497e-007 2.99804e-018 -2.42657e-020 -1.42182e-022 0 0 -0 -0.0187562 -0.001176 5.858e-005 5.06224e-018 3.88251e-019 1.21329e-020 0 0 -0 -0.012269 -0.00324817 0.000675346 -1.74678e-018 3.88251e-019 -0 0 0 -0 0 0 -0 0 0 -0 0 0 -0 0 0 -0 0 0 -0 0 0 -0 0 0 -0 0 0 -0 0 0 -0 0 0 -0 0.0149955 -9.10982e-005 2.64101e-007 -9.69331e-018 1.21329e-020 -4.7394e-023 0 0 -0 0.0189956 -0.00119102 -5.96516e-005 -5.41541e-019 0 2.42657e-020 0 0 -0 0.0122698 -0.00324857 -0.000673756 -2.00796e-019 0 -1.94126e-019 0 0 -0 0 0 -0 0 0 -0 3.39842 1.33031 -0.0637918 -5.65207e-008 0.834868 -0.000436188 -3.39935 -2.16518 -0.0642563 -8.89002e-024 -1.18485e-023 -1.48106e-024 -3.39844 1.35642 0.0640283 -3.18788e-007 0.782166 -0.000588827 3.39931 -2.13858 0.0634662 1.1399e-023 0 -0 
-58.8042 3.94311 -10.4461 -96.6667 1.47649e-007 3.75951 0.0463462 1.03967 -0.275605 0.0974975 2.07922 -0.552179 0.0975536 2.07922 -0.552175 -7.70014e-005 56.217 8.64634e-005 -1.1277e-005 -87.1038 -1.3544e-005 -17.7998 -3.06815 8.33486 0.341139 0.599233 -79.0801 -15.4275 -11.5671 -39.8097 -41.5248 -36.4489 -40.9699 -1.27222e-014 -1.59028e-015 -3.18055e-015 6.62086e-032 1.59028e-015 -2.38542e-015 -3.18055e-015 1.59028e-015 7.95139e-016 -1.27222e-014 -1.59028e-015 -3.18055e-015 -0.0145717 -8.70614e-005 -9.29243e-007 1.27222e-014 0 7.95139e-016 -1.27222e-014 -1.59028e-015 -3.18055e-015 -0.0187698 -0.00117158 5.99073e-005 -0 0 3.18055e-015 -1.27222e-014 -1.59028e-015 -3.18055e-015 -0.0122641 -0.00324553 0.000677589 6.62086e-032 -1.59028e-015 2.38542e-015 -1.27222e-014 -1.59028e-015 -3.18055e-015 6.62086e-032 1.59028e-015 -2.38542e-015 -3.18055e-015 1.59028e-015 7.95139e-016 17.7835 -3.13491 -8.42715 -0.347212 0.596923 79.0339 15.3727 -11.609 39.6431 41.8234 -36.2783 41.206 3.18055e-015 -7.95139e-015 -7.95139e-016 -8.82781e-032 -6.36111e-015 -7.95139e-016 6.36111e-015 -7.95139e-015 1.59028e-015 3.18055e-015 -7.95139e-015 -7.95139e-016 0.0149942 -9.10995e-005 -1.54523e-006 -9.54166e-015 -1.43125e-014 -3.18055e-015 3.18055e-015 -7.95139e-015 -7.95139e-016 0.0190487 -0.00119788 -6.1069e-005 -2.03576e-006 -9.65938e-007 1.11265e-006 3.18055e-015 -7.95139e-015 -7.95139e-016 0.0123013 -0.00325585 -0.000676848 -3.18055e-015 0 7.95139e-016 3.18055e-015 -7.95139e-015 -7.95139e-016 -8.82781e-032 -6.36111e-015 -7.95139e-016 6.36111e-015 -7.95139e-015 1.59028e-015 -101.671 -30.9563 -72.8528 93.776 5.2319 -82.2238 -15.3988 43.0259 38.1404 1.57055e-007 -5.38686e-007 -1.45097e-007 -3.64333 -83.9688 -17.3715 -29.2911 56.0597 46.5401 30.6963 34.442 -39.363 7.95139e-016 6.36111e-015 -0 
-55.7661 7.67885 -8.46014 -90 1.98785e-016 3.50023 0.0423393 0.639761 -0.256303 0.0875421 1.27933 -0.513125 0.0875467 1.27933 -0.513127 -0.00013886 48.4322 0.000130608 1.56896e-005 -75.7225 1.40336e-005 -16.5774 -2.36313 10.0778 0.232873 0.732446 -74.3855 -14.9717 -10.2819 -40.842 -35.1159 -36.9896 -34.4221 -1.27222e-014 -1.59028e-015 -1.59028e-015 -9.54166e-015 7.95139e-016 -0 -1.27222e-014 -1.59028e-015 -3.18055e-015 -1.27222e-014 -1.59028e-015 -1.59028e-015 -0.0146223 -8.63512e-005 -2.73646e-006 -3.18055e-015 7.95139e-016 -0 -1.27222e-014 -1.59028e-015 -1.59028e-015 -0.0187255 -0.00117348 5.51223e-005 1.90833e-014 -8.74653e-015 -6.36111e-015 -1.27222e-014 -1.59028e-015 -1.59028e-015 -0.0123312 -0.00326821 0.000677487 9.54166e-015 1.59028e-015 -1.59028e-015 -1.27222e-014 -1.59028e-015 -1.59028e-015 -9.54166e-015 7.95139e-016 -0 -1.27222e-014 -1.59028e-015 -3.18055e-015 16.4902 -2.78966 -10.6521 -0.258274 0.713255 74.1136 14.6582 -10.5394 39.7895 37.159 -35.978 36.0885 1.27222e-014 -9.54166e-015 3.18055e-015 3.18055e-015 -1.03368e-014 -7.95139e-016 -3.31043e-031 -1.19271e-014 -1.59028e-015 1.27222e-014 -9.54166e-015 3.18055e-015 0.0149835 -8.67566e-005 4.53285e-006 3.31043e-032 7.95139e-016 -2.38542e-015 1.27222e-014 -9.54166e-015 3.18055e-015 0.0189772 -0.00118869 -4.69541e-005 -6.36111e-015 3.18055e-015 7.95139e-016 1.27222e-014 -9.54166e-015 3.18055e-015 0.0123251 -0.0032565 -0.000663293 -1.27222e-014 -1.59028e-014 -0 1.27222e-014 -9.54166e-015 3.18055e-015 3.18055e-015 -1.03368e-014 -7.95139e-016 -3.31043e-031 -1.19271e-014 -1.59028e-015 -93.3438 -31.4943 -68.4823 86.2279 5.21728 -76.8515 -11.1223 41.166 32.2496 4.81979e-006 -8.72999e-007 -1.06995e-007 2.71587 -79.2579 -9.49118 -24.9661 56.1573 41.5325 25.9649 31.6271 -34.5774 -4.01844e-007 1.82787e-007 2.3683e-006 
-56.3282 7.27518 -7.4831 -90 1.98785e-016 3.50023 0.043937 0.332244 -0.255716 0.089375 0.664287 -0.511701 0.0893901 0.664289 -0.5117 -0.000221351 44.7475 0.000210991 3.61332e-005 -70.6156 3.0196e-005 -16.5732 -1.89586 12.253 0.214188 0.641452 -75.091 -15.9847 -9.37109 -44.456 -33.4424 -38.7857 -31.738 1.05188e-006 1.19649e-006 5.20461e-007 1.05188e-006 1.19649e-006 5.20461e-007 -5.57511e-008 1.32684e-007 7.11599e-007 1.05188e-006 1.19649e-006 5.20461e-007 -0.0145856 -8.65917e-005 -2.36171e-006 1.05184e-006 1.19642e-006 5.20613e-007 1.05188e-006 1.19649e-006 5.20461e-007 -0.0187246 -0.00117319 5.59214e-005 -5.40506e-008 1.32674e-007 7.11616e-007 1.05188e-006 1.19649e-006 5.20461e-007 -0.0123041 -0.00325362 0.000671102 1.05187e-006 1.19642e-006 5.20562e-007 1.05188e-006 1.19649e-006 5.20461e-007 1.05188e-006 1.19649e-006 5.20461e-007 -5.57511e-008 1.32684e-007 7.11599e-007 16.4053 -2.66034 -13.289 -0.257974 0.608306 74.6048 15.4465 -9.86745 42.5595 37.2627 -37.023 34.8782 -6.36111e-015 -3.18055e-015 -2.38542e-015 2.86045e-006 9.21997e-007 6.09779e-006 6.36111e-015 0 -0 -6.36111e-015 -3.18055e-015 -2.38542e-015 0.0149877 -9.65853e-005 -6.14318e-006 -3.18055e-015 -7.95139e-016 -3.18055e-015 -6.36111e-015 -3.18055e-015 -2.38542e-015 0.0189532 -0.00119599 -6.24887e-005 3.18055e-015 0 -9.54166e-015 -6.36111e-015 -3.18055e-015 -2.38542e-015 0.0122567 -0.00324436 -0.000673421 1.65521e-030 1.19271e-014 -7.95139e-015 -6.36111e-015 -3.18055e-015 -2.38542e-015 2.86045e-006 9.21997e-007 6.09779e-006 6.36111e-015 0 -0 -94.4399 -30.1048 -68.8429 87.2264 2.5096 -74.4927 -8.78606 41.5781 28.9327 1.30496e-006 4.89597e-007 -3.51511e-006 1.38488 -80.421 -10.4876 -27.0169 58.6837 43.2532 25.2267 30.3088 -33.5762 -3.97569e-016 -3.18055e-015 3.18055e-015 
-56.8879 6.87222 -6.50692 -90 1.98785e-016 3.50023 0.0455946 0.024387 -0.255236 0.0912548 0.0485683 -0.510493 0.0912141 0.0485684 -0.510494 -0.00107831 41.0423 0.00137362 -1.67872e-005 -65.4538 -8.92259e-006 -16.5869 -1.42783 14.4328 0.19442 0.550646 -75.7967 -16.9401 -8.39386 -48.0637 -31.6111 -40.5217 -28.9077 -2.10384e-006 -2.39311e-006 -1.03952e-006 -2.10384e-006 -2.39311e-006 -1.03952e-006 -1.05192e-006 -1.19656e-006 -5.19758e-007 -2.10384e-006 -2.39311e-006 -1.03952e-006 -0.0146004 -8.8585e-005 -1.76981e-007 -1.05188e-006 -1.19649e-006 -5.1991e-007 -2.10384e-006 -2.39311e-006 -1.03952e-006 -0.0187151 -0.00118109 6.61774e-005 -1.05187e-006 -1.19647e-006 -5.19943e-007 -2.10384e-006 -2.39311e-006 -1.03952e-006 -0.0122711 -0.00324638 0.000673471 -1.0519e-006 -1.19648e-006 -5.19858e-007 -2.10384e-006 -2.39311e-006 -1.03952e-006 -2.10384e-006 -2.39311e-006 -1.03952e-006 -1.05192e-006 -1.19656e-006 -5.19758e-007 16.3263 -2.52646 -15.9321 -0.256787 0.503367 75.0961 16.2016 -9.1565 45.3232 37.3398 -38.0707 33.652 0 3.97569e-015 -0 3.18055e-015 1.59028e-015 -7.95139e-016 3.18055e-015 3.18055e-015 7.95139e-016 0 3.97569e-015 -0 0.0149609 -8.99544e-005 -2.85267e-007 9.54166e-015 9.54166e-015 -6.36111e-015 0 3.97569e-015 -0 0.0190163 -0.00119103 -5.47892e-005 -6.93376e-007 1.04896e-006 2.44114e-007 0 3.97569e-015 -0 0.0122772 -0.00324954 -0.000678208 9.54166e-015 -3.97569e-015 -7.95139e-016 0 3.97569e-015 -0 3.18055e-015 1.59028e-015 -7.95139e-016 3.18055e-015 3.18055e-015 7.95139e-016 -95.5065 -28.679 -69.1719 88.7607 0.133848 -54.9018 9.05043 41.4887 2.49017 -5.91203e-008 -3.96947e-007 -1.43571e-007 -0.262596 -81.5788 -11.7993 -29.4014 61.1828 45.3123 24.5264 28.9737 -32.6071 1.27222e-014 0 6.36111e-015 
-57.4435 6.47177 -5.52738 -90 1.98785e-016 3.50023 0.0471504 -0.283743 -0.254429 0.0930253 -0.56769 -0.508625 0.0930571 -0.56769 -0.508626 -0.000403861 37.3253 0.000524682 1.1751e-006 -60.2571 5.64014e-006 -16.6182 -0.959263 16.6138 0.173502 0.460123 -76.5024 -17.8322 -7.356 -51.6583 -29.614 -42.1871 -25.9232 -3.18055e-015 -2.38542e-015 7.95139e-016 1.05195e-006 1.1965e-006 5.19464e-007 -1.05195e-006 -1.1965e-006 -5.19464e-007 -3.18055e-015 -2.38542e-015 7.95139e-016 -0.0145972 -8.77242e-005 5.11137e-007 5.32951e-008 -1.41934e-007 -7.15021e-007 -3.18055e-015 -2.38542e-015 7.95139e-016 -0.018779 -0.00118434 6.55648e-005 -1.0519e-006 -1.19641e-006 -5.19649e-007 -3.18055e-015 -2.38542e-015 7.95139e-016 -0.0123172 -0.00325777 0.000669472 5.34806e-008 -1.42235e-007 -7.14959e-007 -3.18055e-015 -2.38542e-015 7.95139e-016 1.05195e-006 1.1965e-006 5.19464e-007 -1.05195e-006 -1.1965e-006 -5.19464e-007 16.2535 -2.38883 -18.581 -0.254675 0.398434 75.5874 16.9212 -8.40917 48.0772 37.3892 -39.1202 32.4086 6.36111e-015 1.59028e-015 7.95139e-016 3.18055e-015 7.95139e-016 -7.95139e-016 3.18055e-015 7.95139e-016 -7.95139e-016 6.36111e-015 1.59028e-015 7.95139e-016 0.0149724 -8.94156e-005 -1.30206e-006 -6.36111e-015 2.38542e-015 1.59028e-015 6.36111e-015 1.59028e-015 7.95139e-016 0.0189544 -0.00118949 -5.80962e-005 -6.36111e-015 -7.95139e-016 1.59028e-015 6.36111e-015 1.59028e-015 7.95139e-016 0.0122837 -0.00324841 -0.000680105 9.54166e-015 7.95139e-016 2.38542e-015 6.36111e-015 1.59028e-015 7.95139e-016 3.18055e-015 7.95139e-016 -7.95139e-016 3.18055e-015 7.95139e-016 -7.95139e-016 -97.246 -27.4269 -70.5517 91.2841 0.0733402 -68.7394 -1.99709 41.9589 20.054 6.38796e-008 3.9752e-007 1.4019e-007 -2.36319 -82.7276 -13.5639 -32.2116 63.6438 47.8006 23.8587 27.6181 -31.6663 1.19271e-015 -6.36111e-015 -0 
